<svg xmlns="http://www.w3.org/2000/svg" viewBox="0 0 1440 320"><path fill="#22c55e" class="fill-green-500" fill-opacity="1" d="M0,160L18.5,133.3C36.9,107,74,53,111,37.3C147.7,21,185,43,222,53.3C258.5,64,295,64,332,90.7C369.2,117,406,171,443,176C480,181,517,139,554,128C590.8,117,628,139,665,128C701.5,117,738,75,775,53.3C812.3,32,849,32,886,64C923.1,96,960,160,997,176C1033.8,192,1071,160,1108,170.7C1144.6,181,1182,235,1218,224C1255.4,213,1292,139,1329,90.7C1366.2,43,1403,21,1422,10.7L1440,0L1440,320L1421.5,320C1403.1,320,1366,320,1329,320C1292.3,320,1255,320,1218,320C1181.5,320,1145,320,1108,320C1070.8,320,1034,320,997,320C960,320,923,320,886,320C849.2,320,812,320,775,320C738.5,320,702,320,665,320C627.7,320,591,320,554,320C516.9,320,480,320,443,320C406.2,320,369,320,332,320C295.4,320,258,320,222,320C184.6,320,148,320,111,320C73.8,320,37,320,18,320L0,320Z"></path></svg>