<svg xmlns="http://www.w3.org/2000/svg" viewBox="0 0 1440 320"><path fill="#31572c" class="fill-theme-green-3" fill-opacity="1" d="M0,44L33.8,38.7C55.6,33,99,23,143,44C186.5,65,230,119,274,145.3C317.5,172,361,172,405,166.7C448.4,161,492,151,536,134.7C579.3,119,623,97,667,108C710.2,119,754,161,797,204C841.1,247,885,289,928,289.3C972,289,1016,247,1059,236C1102.9,225,1147,247,1190,246.7C1233.8,247,1277,225,1321,204C1364.7,183,1408,161,1430,150.7L1452,140L1452,332L1430.2,332C1408.4,332,1365,332,1321,332C1277.5,332,1234,332,1190,332C1146.5,332,1103,332,1059,332C1015.6,332,972,332,928,332C884.7,332,841,332,797,332C753.8,332,710,332,667,332C622.9,332,579,332,536,332C492,332,448,332,405,332C361.1,332,317,332,274,332C230.2,332,187,332,143,332C99.3,332,56,332,34,332L0,332Z"></path></svg>