<svg xmlns="http://www.w3.org/2000/svg" viewBox="0 0 1440 320"><path class="footer-colour" fill="#008C52" fill-opacity="1" d="M0,32L21.8,26.7C43.6,21,87,11,131,32C174.5,53,218,107,262,133.3C305.5,160,349,160,393,154.7C436.4,149,480,139,524,122.7C567.3,107,611,85,655,96C698.2,107,742,149,785,192C829.1,235,873,277,916,277.3C960,277,1004,235,1047,224C1090.9,213,1135,235,1178,234.7C1221.8,235,1265,213,1309,192C1352.7,171,1396,149,1418,138.7L1440,128L1440,320L1418.2,320C1396.4,320,1353,320,1309,320C1265.5,320,1222,320,1178,320C1134.5,320,1091,320,1047,320C1003.6,320,960,320,916,320C872.7,320,829,320,785,320C741.8,320,698,320,655,320C610.9,320,567,320,524,320C480,320,436,320,393,320C349.1,320,305,320,262,320C218.2,320,175,320,131,320C87.3,320,44,320,22,320L0,320Z"></path></svg>
