<!-- <svg xmlns="http://www.w3.org/2000/svg" viewBox="0 0 640 512">
    <path d="M128 64c0-17.7 14.3-32 32-32H320c17.7 0 32 14.3 32 32V416h96V256c0-17.7 14.3-32 32-32H608c17.7 0 32 14.3 32 32s-14.3 32-32 32H512V448c0 17.7-14.3 32-32 32H320c-17.7 0-32-14.3-32-32V96H192V256c0 17.7-14.3 32-32 32H32c-17.7 0-32-14.3-32-32s14.3-32 32-32h96V64z"/>
</svg> -->

    <svg
        width="167.5"
        height="100"
        viewBox="0 0 167.5 100"
        fill="none"
        xmlns="http://www.w3.org/2000/svg"
        stroke-width="6"
        stroke="#a8a29e"
    >
        <line y1="-0.5" x2="80" y2="-0.5" transform="matrix(-0.344302 -0.938859 0.905771 -0.423768 48.5441 88)"/>
        <line y1="-0.5" x2="40" y2="-0.5" transform="matrix(-0.344302 -0.938859 0.905771 -0.423768 115 88)"/>
        <line y1="-0.5" x2="80" y2="-0.5" transform="matrix(0.344302 -0.938859 0.905771 0.423768 68 88.6281)"/>
        <line y1="-0.5" x2="40" y2="-0.5" transform="matrix(0.344302 -0.938859 0.905771 0.423768 134 88.314)"/>
        <line x1="48" y1="87.5" x2="68" y2="87.5"/>
        <line x1="114" y1="87.5" x2="134" y2="87.5"/>
        <!-- <line x1="81.5" y1="50.5" x2="101.5" y2="50.5"/> -->
        <!-- <line x1="14" y1="50.5" x2="34" y2="50.5"/> -->
        <!-- <line x1="1" y1="13.5" x2="21" y2="13.5"/> -->
        <line x1="94.5" y1="13.5" x2="114.5" y2="13.5"/>
        <line x1="146.5" y1="50.5" x2="166.5" y2="50.5"/>
        <circle cx="146.5" cy="18" r="20" fill="#facc15" stroke="none"/>
    </svg>